<mxfile host="app.diagrams.net" modified="2022-04-01T14:15:13.682Z" agent="5.0 (Windows)" etag="SywKAPL3YcCj5iI8aaxh" version="17.4.0" type="github">
  <diagram id="kgpKYQtTHZ0yAKxKKP6v" name="Page-1">
    <mxGraphModel dx="1422" dy="737" grid="1" gridSize="10" guides="1" tooltips="1" connect="1" arrows="1" fold="1" page="1" pageScale="1" pageWidth="850" pageHeight="1100" math="0" shadow="0">
      <root>
        <mxCell id="0" />
        <mxCell id="1" parent="0" />
        <mxCell id="3nuBFxr9cyL0pnOWT2aG-1" value="Sistem Kipas Angin Otomatis" style="shape=table;childLayout=tableLayout;startSize=40;collapsible=0;recursiveResize=0;expand=0;fillColor=none;fontStyle=1" parent="1" vertex="1">
          <mxGeometry x="40" y="10" width="800" height="650" as="geometry" />
        </mxCell>
        <mxCell id="3nuBFxr9cyL0pnOWT2aG-3" value="" style="shape=tableRow;horizontal=0;swimlaneHead=0;swimlaneBody=0;top=0;left=0;bottom=0;right=0;fillColor=none;points=[[0,0.5],[1,0.5]];portConstraint=eastwest;startSize=0;collapsible=0;recursiveResize=0;expand=0;fontStyle=1;" parent="3nuBFxr9cyL0pnOWT2aG-1" vertex="1">
          <mxGeometry y="40" width="800" height="610" as="geometry" />
        </mxCell>
        <mxCell id="3nuBFxr9cyL0pnOWT2aG-4" value="User" style="swimlane;swimlaneHead=0;swimlaneBody=0;connectable=0;fillColor=none;startSize=40;collapsible=0;recursiveResize=0;expand=0;fontStyle=1;" parent="3nuBFxr9cyL0pnOWT2aG-3" vertex="1">
          <mxGeometry width="164" height="610" as="geometry">
            <mxRectangle width="164" height="610" as="alternateBounds" />
          </mxGeometry>
        </mxCell>
        <mxCell id="3nuBFxr9cyL0pnOWT2aG-5" style="edgeStyle=orthogonalEdgeStyle;rounded=0;orthogonalLoop=1;jettySize=auto;html=1;" parent="3nuBFxr9cyL0pnOWT2aG-4" source="3nuBFxr9cyL0pnOWT2aG-6" edge="1">
          <mxGeometry relative="1" as="geometry">
            <mxPoint x="65" y="120" as="targetPoint" />
          </mxGeometry>
        </mxCell>
        <mxCell id="3nuBFxr9cyL0pnOWT2aG-6" value="Mulai" style="rounded=1;whiteSpace=wrap;html=1;arcSize=50;" parent="3nuBFxr9cyL0pnOWT2aG-4" vertex="1">
          <mxGeometry x="20" y="60" width="90" height="40" as="geometry" />
        </mxCell>
        <mxCell id="bj0LjVLw_X0Br20WzgA9-2" value="Seting paameter sistem" style="verticalLabelPosition=middle;verticalAlign=middle;html=1;shape=trapezoid;perimeter=trapezoidPerimeter;whiteSpace=wrap;size=0.23;arcSize=10;flipV=1;labelPosition=center;align=center;" vertex="1" parent="3nuBFxr9cyL0pnOWT2aG-4">
          <mxGeometry x="20" y="120" width="90" height="60" as="geometry" />
        </mxCell>
        <mxCell id="bj0LjVLw_X0Br20WzgA9-37" value="Selesai" style="strokeWidth=2;html=1;shape=mxgraph.flowchart.start_1;whiteSpace=wrap;fontSize=10;" vertex="1" parent="3nuBFxr9cyL0pnOWT2aG-4">
          <mxGeometry x="20" y="410" width="100" height="60" as="geometry" />
        </mxCell>
        <mxCell id="3nuBFxr9cyL0pnOWT2aG-8" value="Aplikasi" style="swimlane;swimlaneHead=0;swimlaneBody=0;connectable=0;fillColor=none;startSize=40;collapsible=0;recursiveResize=0;expand=0;fontStyle=1;" parent="3nuBFxr9cyL0pnOWT2aG-3" vertex="1">
          <mxGeometry x="164" width="186" height="610" as="geometry">
            <mxRectangle width="186" height="610" as="alternateBounds" />
          </mxGeometry>
        </mxCell>
        <mxCell id="bj0LjVLw_X0Br20WzgA9-3" value="Membaca setting" style="rounded=1;whiteSpace=wrap;html=1;absoluteArcSize=1;arcSize=14;strokeWidth=2;fontSize=10;" vertex="1" parent="3nuBFxr9cyL0pnOWT2aG-8">
          <mxGeometry x="51" y="60" width="94" height="40" as="geometry" />
        </mxCell>
        <mxCell id="3nuBFxr9cyL0pnOWT2aG-11" value="&#xa;Sistem&#xa;&#xa;" style="swimlane;swimlaneHead=0;swimlaneBody=0;connectable=0;fillColor=none;startSize=40;collapsible=0;recursiveResize=0;expand=0;fontStyle=1;" parent="3nuBFxr9cyL0pnOWT2aG-3" vertex="1">
          <mxGeometry x="350" width="450" height="610" as="geometry">
            <mxRectangle width="450" height="610" as="alternateBounds" />
          </mxGeometry>
        </mxCell>
        <mxCell id="bj0LjVLw_X0Br20WzgA9-8" value="Menerima setting dari aplikasi" style="rounded=1;whiteSpace=wrap;html=1;absoluteArcSize=1;arcSize=14;strokeWidth=2;fontSize=10;" vertex="1" parent="3nuBFxr9cyL0pnOWT2aG-11">
          <mxGeometry x="30" y="57" width="90" height="46" as="geometry" />
        </mxCell>
        <mxCell id="bj0LjVLw_X0Br20WzgA9-14" value="Sensor membaca suhu dalam ruangan" style="rounded=1;whiteSpace=wrap;html=1;absoluteArcSize=1;arcSize=14;strokeWidth=2;fontSize=10;" vertex="1" parent="3nuBFxr9cyL0pnOWT2aG-11">
          <mxGeometry x="165" y="140" width="90" height="46" as="geometry" />
        </mxCell>
        <mxCell id="bj0LjVLw_X0Br20WzgA9-16" value="Database" style="strokeWidth=2;html=1;shape=mxgraph.flowchart.database;whiteSpace=wrap;fontSize=10;" vertex="1" parent="3nuBFxr9cyL0pnOWT2aG-11">
          <mxGeometry x="310" y="50" width="60" height="60" as="geometry" />
        </mxCell>
        <mxCell id="bj0LjVLw_X0Br20WzgA9-17" value="" style="endArrow=classic;html=1;rounded=0;fontSize=10;exitX=1;exitY=0.5;exitDx=0;exitDy=0;entryX=0;entryY=0.5;entryDx=0;entryDy=0;entryPerimeter=0;" edge="1" parent="3nuBFxr9cyL0pnOWT2aG-11" source="bj0LjVLw_X0Br20WzgA9-8" target="bj0LjVLw_X0Br20WzgA9-16">
          <mxGeometry width="50" height="50" relative="1" as="geometry">
            <mxPoint x="125" y="110" as="sourcePoint" />
            <mxPoint x="175" y="60" as="targetPoint" />
          </mxGeometry>
        </mxCell>
        <mxCell id="bj0LjVLw_X0Br20WzgA9-20" value="Kecepatan kipas tinggi" style="rounded=1;whiteSpace=wrap;html=1;absoluteArcSize=1;arcSize=14;strokeWidth=2;fontSize=10;" vertex="1" parent="3nuBFxr9cyL0pnOWT2aG-11">
          <mxGeometry x="5" y="410" width="115" height="60" as="geometry" />
        </mxCell>
        <mxCell id="bj0LjVLw_X0Br20WzgA9-22" value="Suhu" style="strokeWidth=2;html=1;shape=mxgraph.flowchart.decision;whiteSpace=wrap;fontSize=10;" vertex="1" parent="3nuBFxr9cyL0pnOWT2aG-11">
          <mxGeometry x="160" y="255" width="100" height="100" as="geometry" />
        </mxCell>
        <mxCell id="bj0LjVLw_X0Br20WzgA9-23" value="Kecepatan kipas lambat" style="rounded=1;whiteSpace=wrap;html=1;absoluteArcSize=1;arcSize=14;strokeWidth=2;fontSize=10;" vertex="1" parent="3nuBFxr9cyL0pnOWT2aG-11">
          <mxGeometry x="300" y="410" width="130" height="60" as="geometry" />
        </mxCell>
        <mxCell id="bj0LjVLw_X0Br20WzgA9-25" value="" style="edgeStyle=segmentEdgeStyle;endArrow=classic;html=1;rounded=0;fontSize=10;entryX=1;entryY=0.5;entryDx=0;entryDy=0;exitX=0.5;exitY=1;exitDx=0;exitDy=0;exitPerimeter=0;" edge="1" parent="3nuBFxr9cyL0pnOWT2aG-11" source="bj0LjVLw_X0Br20WzgA9-16" target="bj0LjVLw_X0Br20WzgA9-14">
          <mxGeometry width="50" height="50" relative="1" as="geometry">
            <mxPoint x="195" y="180" as="sourcePoint" />
            <mxPoint x="245" y="130" as="targetPoint" />
            <Array as="points">
              <mxPoint x="340" y="163" />
            </Array>
          </mxGeometry>
        </mxCell>
        <mxCell id="bj0LjVLw_X0Br20WzgA9-34" value="Suhu diatas parameter" style="edgeStyle=segmentEdgeStyle;endArrow=classic;html=1;rounded=0;fontSize=10;" edge="1" parent="3nuBFxr9cyL0pnOWT2aG-11" source="bj0LjVLw_X0Br20WzgA9-14" target="bj0LjVLw_X0Br20WzgA9-22">
          <mxGeometry width="50" height="50" relative="1" as="geometry">
            <mxPoint x="-340" y="156" as="sourcePoint" />
            <mxPoint x="470" y="316.71067811865476" as="targetPoint" />
          </mxGeometry>
        </mxCell>
        <mxCell id="bj0LjVLw_X0Br20WzgA9-35" value="" style="edgeStyle=segmentEdgeStyle;endArrow=classic;html=1;rounded=0;fontSize=10;" edge="1" parent="3nuBFxr9cyL0pnOWT2aG-11" source="bj0LjVLw_X0Br20WzgA9-22" target="bj0LjVLw_X0Br20WzgA9-23">
          <mxGeometry width="50" height="50" relative="1" as="geometry">
            <mxPoint x="-290" y="250" as="sourcePoint" />
            <mxPoint x="590.7106781186548" y="360" as="targetPoint" />
          </mxGeometry>
        </mxCell>
        <mxCell id="bj0LjVLw_X0Br20WzgA9-42" value="&lt;font style=&quot;font-size: 10px&quot;&gt;Suhu mendekati parameter&lt;br&gt;&lt;/font&gt;" style="edgeLabel;html=1;align=center;verticalAlign=middle;resizable=0;points=[];fontSize=10;" vertex="1" connectable="0" parent="bj0LjVLw_X0Br20WzgA9-35">
          <mxGeometry x="-0.3158" y="-2" relative="1" as="geometry">
            <mxPoint x="22" y="-2" as="offset" />
          </mxGeometry>
        </mxCell>
        <mxCell id="bj0LjVLw_X0Br20WzgA9-44" value="" style="edgeStyle=segmentEdgeStyle;endArrow=classic;html=1;rounded=0;fontSize=10;entryX=0.5;entryY=0;entryDx=0;entryDy=0;" edge="1" parent="3nuBFxr9cyL0pnOWT2aG-11" source="bj0LjVLw_X0Br20WzgA9-22" target="bj0LjVLw_X0Br20WzgA9-20">
          <mxGeometry width="50" height="50" relative="1" as="geometry">
            <mxPoint x="-300.71067811865476" y="305" as="sourcePoint" />
            <mxPoint x="479.28932188134524" y="355" as="targetPoint" />
          </mxGeometry>
        </mxCell>
        <mxCell id="bj0LjVLw_X0Br20WzgA9-45" value="Suhu jauh dari parameter" style="edgeLabel;html=1;align=center;verticalAlign=middle;resizable=0;points=[];fontSize=10;" vertex="1" connectable="0" parent="bj0LjVLw_X0Br20WzgA9-44">
          <mxGeometry x="-0.3158" y="-2" relative="1" as="geometry">
            <mxPoint as="offset" />
          </mxGeometry>
        </mxCell>
        <mxCell id="bj0LjVLw_X0Br20WzgA9-46" value="Sensor membaca kembali suhu ruangan" style="rounded=1;whiteSpace=wrap;html=1;absoluteArcSize=1;arcSize=14;strokeWidth=2;fontSize=10;" vertex="1" parent="3nuBFxr9cyL0pnOWT2aG-11">
          <mxGeometry x="125" y="530" width="170" height="50" as="geometry" />
        </mxCell>
        <mxCell id="bj0LjVLw_X0Br20WzgA9-48" value="Belum sesuai parameter" style="edgeStyle=segmentEdgeStyle;endArrow=classic;html=1;rounded=0;fontSize=10;entryX=0.5;entryY=1;entryDx=0;entryDy=0;entryPerimeter=0;" edge="1" parent="3nuBFxr9cyL0pnOWT2aG-11" source="bj0LjVLw_X0Br20WzgA9-46" target="bj0LjVLw_X0Br20WzgA9-22">
          <mxGeometry width="50" height="50" relative="1" as="geometry">
            <mxPoint x="-180" y="459.28932188134524" as="sourcePoint" />
            <mxPoint x="600" y="509.28932188134524" as="targetPoint" />
          </mxGeometry>
        </mxCell>
        <mxCell id="bj0LjVLw_X0Br20WzgA9-50" value="" style="edgeStyle=segmentEdgeStyle;endArrow=classic;html=1;rounded=0;fontSize=10;entryX=0;entryY=0.5;entryDx=0;entryDy=0;" edge="1" parent="3nuBFxr9cyL0pnOWT2aG-11" source="bj0LjVLw_X0Br20WzgA9-20" target="bj0LjVLw_X0Br20WzgA9-46">
          <mxGeometry width="50" height="50" relative="1" as="geometry">
            <mxPoint x="-327.5" y="470" as="sourcePoint" />
            <mxPoint x="452.5" y="590.7106781186548" as="targetPoint" />
            <Array as="points">
              <mxPoint x="63" y="555" />
            </Array>
          </mxGeometry>
        </mxCell>
        <mxCell id="bj0LjVLw_X0Br20WzgA9-51" value="" style="edgeStyle=segmentEdgeStyle;endArrow=classic;html=1;rounded=0;fontSize=10;entryX=1;entryY=0.5;entryDx=0;entryDy=0;" edge="1" parent="3nuBFxr9cyL0pnOWT2aG-11" source="bj0LjVLw_X0Br20WzgA9-23" target="bj0LjVLw_X0Br20WzgA9-46">
          <mxGeometry width="50" height="50" relative="1" as="geometry">
            <mxPoint x="-25" y="470" as="sourcePoint" />
            <mxPoint x="755" y="590.7106781186548" as="targetPoint" />
            <Array as="points">
              <mxPoint x="370" y="555" />
            </Array>
          </mxGeometry>
        </mxCell>
        <mxCell id="bj0LjVLw_X0Br20WzgA9-5" value="" style="edgeStyle=segmentEdgeStyle;endArrow=classic;html=1;rounded=0;fontSize=10;exitX=1;exitY=0.5;exitDx=0;exitDy=0;entryX=0.5;entryY=1;entryDx=0;entryDy=0;" edge="1" parent="3nuBFxr9cyL0pnOWT2aG-3" source="bj0LjVLw_X0Br20WzgA9-2" target="bj0LjVLw_X0Br20WzgA9-3">
          <mxGeometry width="50" height="50" relative="1" as="geometry">
            <mxPoint x="110" y="170" as="sourcePoint" />
            <mxPoint x="160" y="120" as="targetPoint" />
          </mxGeometry>
        </mxCell>
        <mxCell id="bj0LjVLw_X0Br20WzgA9-13" value="" style="endArrow=classic;html=1;rounded=0;fontSize=10;exitX=1;exitY=0.5;exitDx=0;exitDy=0;" edge="1" parent="3nuBFxr9cyL0pnOWT2aG-3" source="bj0LjVLw_X0Br20WzgA9-3" target="bj0LjVLw_X0Br20WzgA9-8">
          <mxGeometry width="50" height="50" relative="1" as="geometry">
            <mxPoint x="280" y="100" as="sourcePoint" />
            <mxPoint x="330" y="50" as="targetPoint" />
          </mxGeometry>
        </mxCell>
        <mxCell id="bj0LjVLw_X0Br20WzgA9-38" value="" style="edgeStyle=segmentEdgeStyle;endArrow=classic;html=1;rounded=0;fontSize=10;entryX=1;entryY=0.5;entryDx=0;entryDy=0;entryPerimeter=0;" edge="1" parent="3nuBFxr9cyL0pnOWT2aG-3" source="bj0LjVLw_X0Br20WzgA9-14" target="bj0LjVLw_X0Br20WzgA9-37">
          <mxGeometry width="50" height="50" relative="1" as="geometry">
            <mxPoint x="185.28932188134524" y="123" as="sourcePoint" />
            <mxPoint x="563.2893218813452" y="233" as="targetPoint" />
            <Array as="points">
              <mxPoint x="255" y="163" />
              <mxPoint x="255" y="440" />
            </Array>
          </mxGeometry>
        </mxCell>
        <mxCell id="bj0LjVLw_X0Br20WzgA9-39" value="Suhu sesuai/dibawah parameter" style="edgeLabel;html=1;align=center;verticalAlign=middle;resizable=0;points=[];fontSize=10;" vertex="1" connectable="0" parent="bj0LjVLw_X0Br20WzgA9-38">
          <mxGeometry x="-0.6442" y="-2" relative="1" as="geometry">
            <mxPoint as="offset" />
          </mxGeometry>
        </mxCell>
        <mxCell id="bj0LjVLw_X0Br20WzgA9-49" value="Suhu sesuai parameter" style="edgeStyle=segmentEdgeStyle;endArrow=classic;html=1;rounded=0;fontSize=10;entryX=0.5;entryY=1;entryDx=0;entryDy=0;entryPerimeter=0;exitX=0.5;exitY=1;exitDx=0;exitDy=0;" edge="1" parent="3nuBFxr9cyL0pnOWT2aG-3" source="bj0LjVLw_X0Br20WzgA9-46" target="bj0LjVLw_X0Br20WzgA9-37">
          <mxGeometry width="50" height="50" relative="1" as="geometry">
            <mxPoint x="14.289321881345245" y="555" as="sourcePoint" />
            <mxPoint x="794.2893218813452" y="605" as="targetPoint" />
          </mxGeometry>
        </mxCell>
      </root>
    </mxGraphModel>
  </diagram>
</mxfile>
